HIERARCHY
ROOT Hips
{
	OFFSET 0.00 0.00 0.00
	CHANNELS 6 Xposition Yposition Zposition Yrotation Xrotation Zrotation
	JOINT LHipJoint
	{
		OFFSET	0.0000	0.0000	0.0000
		CHANNELS 3 Yrotation Xrotation Zrotation
		JOINT LeftUpLeg
		{
			OFFSET	1.0138	-0.0809	-0.0827
			CHANNELS 3 Yrotation Xrotation Zrotation
			JOINT LeftLeg
			{
				OFFSET	0.4110	-3.9095	0.3245
				CHANNELS 3 Yrotation Xrotation Zrotation
				JOINT LeftFoot
				{
					OFFSET	0.3810	-4.0555	-0.1470
					CHANNELS 3 Yrotation Xrotation Zrotation
					JOINT LeftToeBase
					{
						OFFSET	0.1396	-0.4462	1.3079
						CHANNELS 3 Yrotation Xrotation Zrotation
						End Site
						{
							OFFSET 0.0161 -0.0248 0.1809
						}
					}
				}
			}
		}
	}
	JOINT LowerBack
	{
		OFFSET	0.0000	0.7977	-0.3873
		CHANNELS 3 Yrotation Xrotation Zrotation
		JOINT Spine
		{
			OFFSET	0.0000	1.4131	0.1715
			CHANNELS 3 Yrotation Xrotation Zrotation
			JOINT Spine1
			{
				OFFSET	0.0000	1.4392	-0.1032
				CHANNELS 3 Yrotation Xrotation Zrotation
				JOINT LeftShoulder
				{
					OFFSET	0.2274	1.0382	0.4032
					CHANNELS 3 Yrotation Xrotation Zrotation
					JOINT LeftArm
					{
						OFFSET	1.4730	-0.2267	-0.0231
						CHANNELS 3 Yrotation Xrotation Zrotation
						JOINT LeftForeArm
						{
							OFFSET	1.6131	-1.8059	0.0081
							CHANNELS 3 Yrotation Xrotation Zrotation
							JOINT LeftHand
							{
								OFFSET	1.2197	-1.2423	1.6317
								CHANNELS 3 Yrotation Xrotation Zrotation
								JOINT LThumb
								{
									OFFSET	0.0109	-0.0753	0.4387
									CHANNELS 3 Yrotation Xrotation Zrotation
									End Site
									{
										OFFSET -0.2090 -0.0868 0.2097
									}
								}
								JOINT LeftFingerBase
								{
									OFFSET	0.1071	-0.1567	0.2607
									CHANNELS 3 Yrotation Xrotation Zrotation
									JOINT LeftHandFinger1
									{
										OFFSET	0.1706	-0.2492	0.6830
										CHANNELS 3 Yrotation Xrotation Zrotation
										End Site
										{
											OFFSET 0.0335 -0.1507 0.2071
										}
									}
								}
							}
						}
					}
				}
				JOINT Neck
				{
					OFFSET	0.0000	1.7498	0.2381
					CHANNELS 3 Yrotation Xrotation Zrotation
					JOINT Neck1
					{
						OFFSET	0.0000	0.5043	0.1959
						CHANNELS 3 Yrotation Xrotation Zrotation
						JOINT Head
						{
							OFFSET	0.0000	0.5044	0.1959
							CHANNELS 3 Yrotation Xrotation Zrotation
							End Site
							{
								OFFSET 0.0000 1.4798 -0.0693
							}
						}
					}
				}
				JOINT RightShoulder
				{
					OFFSET	-0.2274	1.0382	0.4032
					CHANNELS 3 Yrotation Xrotation Zrotation
					JOINT RightArm
					{
						OFFSET	-1.4730	-0.2267	-0.0231
						CHANNELS 3 Yrotation Xrotation Zrotation
						JOINT RightForeArm
						{
							OFFSET	-1.6131	-1.8059	0.0081
							CHANNELS 3 Yrotation Xrotation Zrotation
							JOINT RightHand
							{
								OFFSET	-1.2197	-1.2423	1.6317
								CHANNELS 3 Yrotation Xrotation Zrotation
								JOINT RThumb
								{
									OFFSET	-0.0109	-0.0753	0.4387
									CHANNELS 3 Yrotation Xrotation Zrotation
									End Site
									{
										OFFSET 0.2090 -0.0868 0.2097
									}
								}
								JOINT RightFingerBase
								{
									OFFSET	-0.1071	-0.1567	0.2607
									CHANNELS 3 Yrotation Xrotation Zrotation
									JOINT RightHandFinger1
									{
										OFFSET	-0.1706	-0.2492	0.6830
										CHANNELS 3 Yrotation Xrotation Zrotation
										End Site
										{
											OFFSET -0.0335 -0.1507 0.2071
										}
									}
								}
							}
						}
					}
				}
			}
		}
	}
	JOINT RHipJoint
	{
		OFFSET	0.0000	0.0000	0.0000
		CHANNELS 3 Yrotation Xrotation Zrotation
		JOINT RightUpLeg
		{
			OFFSET	-1.0138	-0.0809	-0.0827
			CHANNELS 3 Yrotation Xrotation Zrotation
			JOINT RightLeg
			{
				OFFSET	-0.4110	-3.9095	0.3245
				CHANNELS 3 Yrotation Xrotation Zrotation
				JOINT RightFoot
				{
					OFFSET	-0.3810	-4.0555	-0.1470
					CHANNELS 3 Yrotation Xrotation Zrotation
					JOINT RightToeBase
					{
						OFFSET	-0.1396	-0.4462	1.3079
						CHANNELS 3 Yrotation Xrotation Zrotation
						End Site
						{
							OFFSET -0.0161 -0.0248 0.1809
						}
					}
				}
			}
		}
	}
}
MOTION
Frames: 13
Frame Time: 0.0333333
0.0981 8.5313 0.1080 1.4023 -0.6429 -5.1549 0.0000 -0.0000 0.0000 12.0553 -17.2515 5.7312 12.9087 23.6389 7.2037 3.2830 -7.7297 -6.0231 -0.0000 -0.4730 0.0000 0.0000 -0.0000 0.0000 -0.0799 0.8622 5.0185 -0.0975 1.7277 9.5552 -13.7905 3.4793 3.5220 3.0466 4.5469 -44.5817 19.2584 21.3686 1.4997 19.5299 3.3669 -22.9519 18.6482 -7.5577 32.5856 3.0048 19.5794 -4.1602 -9.0222 -0.1502 -5.0297 -0.3043 1.0453 -2.1696 -0.4268 1.0323 -2.1649 0.9932 0.5145 -5.9787 3.3363 4.5003 -3.6874 0.6053 -1.3540 28.5223 -16.8315 19.0785 -0.7045 -14.9887 13.0987 10.1250 -18.6482 -7.5577 -32.5855 -3.0048 19.5794 4.1602 9.0222 -0.1502 5.0297 0.0000 -0.0000 0.0000 -3.8319 3.4791 16.0890 -5.8656 8.4610 2.4307 2.3131 -11.6947 -13.5130 0.0000 -0.5876 0.0000 
0.0986 8.5314 0.1080 1.4069 -0.6402 -5.1535 0.0000 -0.0000 0.0000 12.0506 -17.2515 5.7252 12.9080 23.6361 7.2039 3.2830 -7.7278 -6.0221 0.0000 -0.4726 0.0000 0.0000 -0.0000 0.0000 -0.0808 0.8606 5.0171 -0.0994 1.7247 9.5521 -13.7816 3.4828 3.5294 3.0518 4.5319 -44.5945 19.2683 21.3778 1.5031 19.4960 3.3796 -22.9484 18.6420 -7.5592 32.5797 3.0056 19.5787 -4.1594 -9.0215 -0.1509 -5.0291 -0.3004 1.0423 -2.1719 -0.4229 1.0294 -2.1675 1.0043 0.4973 -5.9870 3.3360 4.5029 -3.7017 0.5945 -1.3564 28.5361 -16.8348 19.0816 -0.7055 -14.9874 13.1023 10.1238 -18.6420 -7.5592 -32.5797 -3.0056 19.5787 4.1594 9.0214 -0.1509 5.0291 0.0000 -0.0000 0.0000 -3.8361 3.4794 16.0859 -5.8757 8.4555 2.4278 2.3124 -11.6939 -13.5072 -0.0000 -0.5917 0.0000 
0.0990 8.5315 0.1080 1.4147 -0.6384 -5.1552 0.0000 -0.0000 0.0000 12.0459 -17.2555 5.7230 12.9084 23.6386 7.2066 3.2759 -7.7269 -6.0220 0.0000 -0.4758 0.0000 0.0000 -0.0000 0.0000 -0.0823 0.8574 5.0152 -0.1028 1.7184 9.5480 -13.7812 3.4892 3.5536 3.0540 4.5219 -44.6275 19.2776 21.3864 1.5063 19.4728 3.3864 -22.9385 18.6249 -7.5634 32.5635 3.0080 19.5765 -4.1573 -9.0194 -0.1530 -5.0274 -0.2954 1.0393 -2.1738 -0.4176 1.0265 -2.1694 1.0160 0.4740 -5.9830 3.3298 4.5108 -3.7429 0.5867 -1.3655 28.5816 -16.8425 19.0891 -0.7078 -14.9711 13.1144 10.1276 -18.6249 -7.5634 -32.5635 -3.0079 19.5766 4.1573 9.0194 -0.1529 5.0274 0.0000 -0.0000 0.0000 -3.8386 3.4807 16.0868 -5.8873 8.4497 2.4248 2.3118 -11.6930 -13.5021 -0.0000 -0.5926 -0.0000 
0.0993 8.5314 0.1080 1.4259 -0.6371 -5.1591 0.0000 -0.0000 0.0000 12.0380 -17.2611 5.7217 12.9093 23.6429 7.2125 3.2697 -7.7284 -6.0224 -0.0000 -0.4814 0.0000 0.0000 -0.0000 0.0000 -0.0845 0.8518 5.0129 -0.1077 1.7074 9.5431 -13.7863 3.4998 3.6001 3.0491 4.5197 -44.6828 19.2816 21.3901 1.5077 19.4783 3.3916 -22.9218 18.5966 -7.5703 32.5366 3.0118 19.5730 -4.1538 -9.0160 -0.1563 -5.0246 -0.2921 1.0391 -2.1735 -0.4141 1.0263 -2.1693 1.0217 0.4511 -5.9688 3.3205 4.5236 -3.8025 0.5782 -1.3767 28.6490 -16.8503 19.0966 -0.7103 -14.9505 13.1251 10.1357 -18.5966 -7.5703 -32.5366 -3.0118 19.5731 4.1538 9.0160 -0.1563 5.0246 0.0000 -0.0000 0.0000 -3.8395 3.4814 16.0910 -5.9018 8.4457 2.4197 2.3113 -11.6931 -13.4962 -0.0000 -0.5885 -0.0000 
0.0998 8.5314 0.1081 1.4400 -0.6351 -5.1634 0.0000 -0.0000 0.0000 12.0248 -17.2666 5.7181 12.9100 23.6468 7.2215 3.2701 -7.7330 -6.0221 -0.0000 -0.4862 0.0000 0.0000 -0.0000 0.0000 -0.0870 0.8433 5.0109 -0.1134 1.6906 9.5387 -13.7919 3.5147 3.6704 3.0364 4.5261 -44.7618 19.2778 21.3865 1.5064 19.5123 3.3980 -22.9064 18.5575 -7.5799 32.4996 3.0172 19.5682 -4.1490 -9.0114 -0.1609 -5.0207 -0.2923 1.0419 -2.1725 -0.4142 1.0290 -2.1682 1.0163 0.4383 -5.9502 3.3107 4.5409 -3.8761 0.5695 -1.3851 28.7283 -16.8549 19.1010 -0.7117 -14.9384 13.1259 10.1433 -18.5575 -7.5799 -32.4996 -3.0172 19.5682 4.1490 9.0114 -0.1609 5.0207 0.0000 -0.0000 0.0000 -3.8401 3.4811 16.0960 -5.9189 8.4420 2.4132 2.3111 -11.6944 -13.4891 -0.0000 -0.5833 -0.0000 
0.1002 8.5314 0.1081 1.4536 -0.6332 -5.1679 0.0000 -0.0000 0.0000 12.0098 -17.2726 5.7137 12.9111 23.6523 7.2319 3.2752 -7.7384 -6.0203 0.0000 -0.4883 -0.0000 0.0000 -0.0000 0.0000 -0.0892 0.8326 5.0090 -0.1185 1.6694 9.5347 -13.7932 3.5348 3.7646 3.0215 4.5407 -44.8656 19.2683 21.3777 1.5031 19.5538 3.3992 -22.9043 18.5083 -7.5920 32.4530 3.0240 19.5621 -4.1430 -9.0056 -0.1667 -5.0158 -0.2951 1.0460 -2.1719 -0.4170 1.0332 -2.1676 1.0029 0.4403 -5.9332 3.3020 4.5621 -3.9624 0.5643 -1.3877 28.8155 -16.8562 19.1023 -0.7121 -14.9387 13.1164 10.1417 -18.5083 -7.5920 -32.4530 -3.0240 19.5622 4.1430 9.0055 -0.1667 5.0158 0.0000 -0.0000 0.0000 -3.8409 3.4783 16.1006 -5.9349 8.4432 2.4063 2.3111 -11.6974 -13.4816 -0.0000 -0.5826 -0.0000 
0.1006 8.5313 0.1080 1.4626 -0.6337 -5.1737 0.0000 -0.0000 0.0000 12.0001 -17.2786 5.7129 12.9126 23.6610 7.2411 3.2780 -7.7421 -6.0185 0.0000 -0.4887 -0.0000 0.0000 -0.0000 0.0000 -0.0905 0.8214 5.0076 -0.1220 1.6471 9.5314 -13.7883 3.5595 3.8786 3.0100 4.5629 -44.9917 19.2574 21.3677 1.4993 19.5810 3.3850 -22.9205 18.4496 -7.6066 32.3976 3.0320 19.5549 -4.1358 -8.9986 -0.1736 -5.0100 -0.2973 1.0494 -2.1731 -0.4192 1.0366 -2.1687 0.9919 0.4521 -5.9224 3.2936 4.5872 -4.0648 0.5645 -1.3850 28.9145 -16.8561 19.1021 -0.7121 -14.9443 13.1031 10.1248 -18.4496 -7.6066 -32.3976 -3.0320 19.5549 4.1358 8.9986 -0.1736 5.0100 0.0000 -0.0000 0.0000 -3.8389 3.4793 16.1067 -5.9451 8.4411 2.4003 2.3104 -11.6973 -13.4752 0.0000 -0.5887 0.0000 
0.1009 8.5313 0.1080 1.4654 -0.6372 -5.1810 0.0000 -0.0000 0.0000 11.9996 -17.2843 5.7177 12.9147 23.6731 7.2473 3.2746 -7.7444 -6.0185 -0.0000 -0.4895 -0.0000 0.0000 -0.0000 0.0000 -0.0915 0.8104 5.0064 -0.1250 1.6252 9.5286 -13.7792 3.5884 4.0073 3.0009 4.5914 -45.1337 19.2479 21.3589 1.4960 19.5881 3.3558 -22.9503 18.3819 -7.6234 32.3336 3.0413 19.5465 -4.1275 -8.9905 -0.1816 -5.0033 -0.2963 1.0512 -2.1766 -0.4183 1.0384 -2.1722 0.9916 0.4612 -5.9206 3.2837 4.6161 -4.1874 0.5669 -1.3792 29.0344 -16.8561 19.1022 -0.7121 -14.9466 13.0919 10.0979 -18.3819 -7.6234 -32.3336 -3.0413 19.5465 4.1275 8.9905 -0.1816 5.0033 0.0000 -0.0000 0.0000 -3.8330 3.4840 16.1150 -5.9493 8.4368 2.3947 2.3092 -11.6949 -13.4702 -0.0000 -0.5987 0.0000 
0.1011 8.5312 0.1080 1.4646 -0.6409 -5.1884 0.0000 -0.0000 0.0000 12.0042 -17.2901 5.7248 12.9166 23.6855 7.2503 3.2688 -7.7475 -6.0203 0.0000 -0.4909 0.0000 0.0000 -0.0000 0.0000 -0.0935 0.7986 5.0056 -0.1299 1.6018 9.5266 -13.7689 3.6206 4.1474 2.9892 4.6217 -45.2861 19.2410 21.3526 1.4936 19.5820 3.3274 -22.9842 18.3054 -7.6425 32.2614 3.0518 19.5371 -4.1181 -8.9814 -0.1906 -4.9957 -0.2920 1.0515 -2.1829 -0.4141 1.0387 -2.1785 1.0022 0.4581 -5.9282 3.2725 4.6487 -4.3310 0.5662 -1.3717 29.1790 -16.8560 19.1021 -0.7120 -14.9448 13.0851 10.0779 -18.3054 -7.6425 -32.2615 -3.0518 19.5371 4.1181 8.9814 -0.1906 4.9957 0.0000 -0.0000 0.0000 -3.8264 3.4883 16.1235 -5.9513 8.4331 2.3899 2.3080 -11.6919 -13.4661 0.0000 -0.6076 0.0000 
0.1014 8.5311 0.1079 1.4645 -0.6411 -5.1947 0.0000 -0.0000 0.0000 12.0064 -17.2979 5.7294 12.9183 23.6965 7.2523 3.2663 -7.7549 -6.0219 0.0000 -0.4916 0.0000 0.0000 -0.0000 0.0000 -0.0972 0.7843 5.0048 -0.1382 1.5736 9.5250 -13.7595 3.6559 4.3028 2.9726 4.6460 -45.4518 19.2383 21.3501 1.4927 19.5699 3.3183 -23.0110 18.2207 -7.6637 32.1817 3.0634 19.5267 -4.1077 -8.9714 -0.2006 -4.9874 -0.2869 1.0505 -2.1902 -0.4091 1.0378 -2.1860 1.0160 0.4427 -5.9406 3.2636 4.6842 -4.4891 0.5604 -1.3613 29.3414 -16.8542 19.1003 -0.7115 -14.9453 13.0824 10.0787 -18.2207 -7.6637 -32.1817 -3.0634 19.5267 4.1077 8.9714 -0.2006 4.9874 0.0000 -0.0000 0.0000 -3.8238 3.4856 16.1288 -5.9537 8.4367 2.3873 2.3079 -11.6931 -13.4628 0.0000 -0.6122 -0.0000 
0.1018 8.5310 0.1078 1.4683 -0.6368 -5.2008 0.0000 -0.0000 0.0000 12.0025 -17.3094 5.7310 12.9201 23.7065 7.2555 3.2671 -7.7664 -6.0216 -0.0000 -0.4899 -0.0000 0.0000 -0.0000 0.0000 -0.1020 0.7669 5.0037 -0.1492 1.5391 9.5230 -13.7523 3.6945 4.4803 2.9532 4.6576 -45.6395 19.2410 21.3526 1.4936 19.5591 3.3338 -23.0170 18.1283 -7.6871 32.0949 3.0761 19.5153 -4.0964 -8.9604 -0.2114 -4.9782 -0.2839 1.0487 -2.1954 -0.4061 1.0360 -2.1912 1.0232 0.4239 -5.9475 3.2584 4.7221 -4.6538 0.5518 -1.3485 29.5110 -16.8506 19.0969 -0.7104 -14.9532 13.0829 10.0981 -18.1283 -7.6871 -32.0949 -3.0761 19.5152 4.0963 8.9604 -0.2114 4.9782 0.0000 -0.0000 0.0000 -3.8263 3.4751 16.1313 -5.9572 8.4478 2.3880 2.3088 -11.6979 -13.4605 -0.0000 -0.6118 -0.0000 
0.1023 8.5308 0.1075 1.4753 -0.6307 -5.2091 0.0000 -0.0000 0.0000 11.9944 -17.3252 5.7327 12.9224 23.7192 7.2612 3.2663 -7.7783 -6.0199 -0.0000 -0.4857 -0.0000 0.0000 -0.0000 0.0000 -0.1068 0.7470 5.0020 -0.1604 1.4998 9.5194 -13.7494 3.7361 4.6823 2.9329 4.6573 -45.8530 19.2474 21.3585 1.4958 19.5607 3.3626 -22.9950 18.0286 -7.7125 32.0015 3.0897 19.5030 -4.0842 -8.9486 -0.2232 -4.9684 -0.2846 1.0473 -2.1962 -0.4068 1.0346 -2.1918 1.0179 0.4109 -5.9397 3.2502 4.7633 -4.8266 0.5455 -1.3398 29.6875 -16.8488 19.0951 -0.7098 -14.9628 13.0882 10.1188 -18.0286 -7.7124 -32.0014 -3.0897 19.5030 4.0842 8.9486 -0.2232 4.9684 0.0000 -0.0000 0.0000 -3.8303 3.4635 16.1343 -5.9611 8.4575 2.3906 2.3096 -11.7016 -13.4584 -0.0000 -0.6073 -0.0000 
0.1029 8.5307 0.1072 1.4815 -0.6262 -5.2198 0.0000 -0.0000 0.0000 11.9870 -17.3420 5.7373 12.9253 23.7345 7.2680 3.2607 -7.7842 -6.0185 0.0000 -0.4801 -0.0000 0.0000 -0.0000 0.0000 -0.1105 0.7258 4.9997 -0.1695 1.4576 9.5142 -13.7514 3.7801 4.9018 2.9128 4.6553 -46.0851 19.2537 21.3643 1.4980 19.5790 3.3887 -22.9569 17.9222 -7.7397 31.9018 3.1043 19.4899 -4.0711 -8.9360 -0.2357 -4.9579 -0.2884 1.0483 -2.1939 -0.4105 1.0356 -2.1896 1.0013 0.4088 -5.9195 3.2296 4.8088 -5.0205 0.5463 -1.3442 29.8832 -16.8536 19.0998 -0.7113 -14.9612 13.1001 10.1220 -17.9222 -7.7397 -31.9018 -3.1043 19.4899 4.0711 8.9360 -0.2357 4.9579 0.0000 -0.0000 0.0000 -3.8305 3.4595 16.1404 -5.9647 8.4539 2.3924 2.3088 -11.6978 -13.4548 -0.0000 -0.6001 0.0000 
